<svg xmlns="http://www.w3.org/2000/svg" width="800" height="400">
  <rect width="100%" height="100%" fill="#1a1a1a"/>
  <!-- Confetti circles -->
  <circle cx="100" cy="50" r="5" fill="#FFD700"/>
  <circle cx="200" cy="150" r="6" fill="#FF69B4"/>
  <circle cx="300" cy="250" r="4" fill="#00FFFF"/>
  <circle cx="400" cy="100" r="7" fill="#FF0000"/>
  <circle cx="500" cy="200" r="5" fill="#00FF00"/>
  <circle cx="600" cy="300" r="6" fill="#FFA500"/>
  <!-- Firework bursts -->
  <line x1="700" y1="50" x2="720" y2="70" stroke="#FFD700" stroke-width="2"/>
  <line x1="700" y1="50" x2="680" y2="70" stroke="#FF69B4" stroke-width="2"/>
  <line x1="700" y1="50" x2="700" y2="80" stroke="#00FFFF" stroke-width="2"/>
</svg>
<svg xmlns="http://www.w3.org/2000/svg" width="800" height="400">
  <rect width="100%" height="100%" fill="#1a1a1a"/>

  <!-- Falling confetti -->
  <circle cx="100" cy="0" r="5" fill="#FFD700">
    <animate attributeName="cy" from="0" to="400" dur="5s" repeatCount="indefinite"/>
  </circle>
  <circle cx="200" cy="0" r="6" fill="#FF69B4">
    <animate attributeName="cy" from="0" to="400" dur="6s" repeatCount="indefinite"/>
  </circle>
  <circle cx="300" cy="0" r="4" fill="#00FFFF">
    <animate attributeName="cy" from="0" to="400" dur="4s" repeatCount="indefinite"/>
  </circle>

  <!-- Firework burst -->
  <line x1="700" y1="200" x2="700" y2="200" stroke="#FF0000" stroke-width="2">
    <animate attributeName="x2" from="700" to="750" dur="2s" repeatCount="indefinite"/>
    <animate attributeName="y2" from="200" to="150" dur="2s" repeatCount="indefinite"/>
  </line>
  <line x1="700" y1="200" x2="700" y2="200" stroke="#00FF00" stroke-width="2">
    <animate attributeName="x2" from="700" to="650" dur="2s" repeatCount="indefinite"/>
    <animate attributeName="y2" from="200" to="250" dur="2s" repeatCount="indefinite"/>
  </line>

  <!-- Rotating star -->
  <polygon points="400,50 410,70 390,70" fill="#FFD700">
    <animateTransform attributeName="transform" attributeType="XML"
      type="rotate" from="0 400 60" to="360 400 60" dur="5s" repeatCount="indefinite"/>
  </polygon>

  <!-- Twinkling sparkle -->
  <circle cx="500" cy="100" r="3" fill="#FFFFFF">
    <animate attributeName="r" values="3;6;3" dur="2s" repeatCount="indefinite"/>
  </circle>
</svg>
